<?xml version="1.0" encoding="UTF-8"?>
<svg id="Layer_1" xmlns="http://www.w3.org/2000/svg" xmlns:xlink="http://www.w3.org/1999/xlink" version="1.1" viewBox="0 0 330 319.3">
  <!-- Generator: Adobe Illustrator 29.3.0, SVG Export Plug-In . SVG Version: 2.1.0 Build 146)  -->
  <defs>
    <style>
      .st0 {
        fill: url(#Degradado_sin_nombre_62);
      }

      .st0, .st1, .st2, .st3, .st4, .st5, .st6, .st7, .st8, .st9 {
        fill-rule: evenodd;
      }

      .st1 {
        fill: url(#Degradado_sin_nombre_12);
      }

      .st2 {
        fill: url(#Degradado_sin_nombre_627);
      }

      .st3 {
        fill: url(#Degradado_sin_nombre_625);
      }

      .st4 {
        fill: url(#Degradado_sin_nombre_623);
      }

      .st5 {
        fill: url(#Degradado_sin_nombre_621);
      }

      .st6 {
        fill: url(#Degradado_sin_nombre_626);
      }

      .st7 {
        fill: url(#Degradado_sin_nombre_622);
      }

      .st8 {
        fill: url(#Degradado_sin_nombre_624);
      }

      .st9 {
        fill: url(#Degradado_sin_nombre_121);
      }
    </style>
    <linearGradient id="Degradado_sin_nombre_62" data-name="Degradado sin nombre 62" x1="235" y1="190.7" x2="235" y2="40.4" gradientUnits="userSpaceOnUse">
      <stop offset="0" stop-color="#00d178"/>
      <stop offset="1" stop-color="#df5"/>
      <stop offset="1" stop-color="#df5"/>
    </linearGradient>
    <linearGradient id="Degradado_sin_nombre_12" data-name="Degradado sin nombre 12" x1="159" y1="62.8" x2="250.3" y2="185.4" gradientUnits="userSpaceOnUse">
      <stop offset="0" stop-color="#b04dff"/>
      <stop offset="0" stop-color="#b04dff"/>
      <stop offset=".1" stop-color="#9163e7"/>
      <stop offset=".4" stop-color="#5392b8"/>
      <stop offset=".7" stop-color="#26b495"/>
      <stop offset=".9" stop-color="#0ac97f"/>
      <stop offset="1" stop-color="#00d178"/>
    </linearGradient>
    <linearGradient id="Degradado_sin_nombre_621" data-name="Degradado sin nombre 62" x1="187.9" y1="190.7" x2="187.9" y2="40.4" xlink:href="#Degradado_sin_nombre_62"/>
    <linearGradient id="Degradado_sin_nombre_622" data-name="Degradado sin nombre 62" x1="31.4" y1="190.7" x2="31.4" y2="40.4" xlink:href="#Degradado_sin_nombre_62"/>
    <linearGradient id="Degradado_sin_nombre_623" data-name="Degradado sin nombre 62" x1="112.1" y1="190.7" x2="112.1" y2="40.4" xlink:href="#Degradado_sin_nombre_62"/>
    <linearGradient id="Degradado_sin_nombre_624" data-name="Degradado sin nombre 62" x1="228.7" y1="190.7" x2="228.7" y2="40.4" xlink:href="#Degradado_sin_nombre_62"/>
    <linearGradient id="Degradado_sin_nombre_625" data-name="Degradado sin nombre 62" x1="73.7" y1="190.7" x2="73.7" y2="40.4" xlink:href="#Degradado_sin_nombre_62"/>
    <linearGradient id="Degradado_sin_nombre_626" data-name="Degradado sin nombre 62" x1="125.5" y1="190.7" x2="125.5" y2="40.4" xlink:href="#Degradado_sin_nombre_62"/>
    <linearGradient id="Degradado_sin_nombre_627" data-name="Degradado sin nombre 62" x1="228.6" y1="190.7" x2="228.6" y2="40.4" xlink:href="#Degradado_sin_nombre_62"/>
    <linearGradient id="Degradado_sin_nombre_121" data-name="Degradado sin nombre 12" x1="83.4" y1="111.4" x2="269.5" y2="226.9" xlink:href="#Degradado_sin_nombre_12"/>
  </defs>
  <path class="st0" d="M231.7,97.5c3.7,1.9,8.2.4,10.1-3.3,1.9-3.7.4-8.2-3.3-10.1h-.2c-3.7-2-8.2-.5-10.1,3.2-1.9,3.7-.4,8.2,3.3,10.1h.2Z"/>
  <path class="st1" d="M183.8,107.2c3.7,1.9,8.2.4,10.1-3.3,1.9-3.7.4-8.2-3.3-10.1h-.2c-3.7-2-8.2-.5-10.1,3.2-1.9,3.7-.4,8.2,3.3,10.1h.2Z"/>
  <path class="st5" d="M265.1,130.8c-2.6-9.4-6.5-18.3-11.5-26.5-2.1-3.5-6.7-4.7-10.2-2.5-3.5,2.1-4.7,6.7-2.5,10.2,4.3,7,7.6,14.7,9.9,22.8,2.2,7.8,3.3,16.1,3.3,24.7,0,25.3-10.2,48.2-26.8,64.7-16.6,16.6-39.4,26.8-64.7,26.8s-15.8-1-23.2-2.9c-7.6-2-14.8-4.9-21.6-8.7-3.6-2-8.2-.7-10.2,2.9-2,3.6-.7,8.2,2.9,10.2,7.8,4.4,16.2,7.8,25.1,10.1,8.7,2.3,17.7,3.5,26.9,3.5,29.4,0,56-11.9,75.3-31.2,19.3-19.3,31.2-45.9,31.2-75.3s-1.4-19.5-3.9-28.7Z"/>
  <path class="st7" d="M30.5,150.5c4.1.5,7.8-2.4,8.3-6.5v-.2c.5-4.1-2.4-7.8-6.5-8.3-4.1-.5-7.8,2.4-8.3,6.5v.2c-.5,4.1,2.4,7.8,6.4,8.3Z"/>
  <path class="st4" d="M192,280.6c-4.7,1.1-9.5,2-14.6,2.6-4.8.6-9.8.9-14.9.9-33.6,0-64.2-13.3-86.6-35-22.5-21.7-36.8-51.9-38-85.3-.1-4.1-3.6-7.4-7.7-7.2-4.1.1-7.4,3.6-7.2,7.7,1.3,37.5,17.3,71.3,42.5,95.6,25.1,24.3,59.3,39.2,97,39.2s11.1-.3,16.6-1c5.5-.6,10.9-1.6,16.3-3,4-1,6.5-5,5.5-9-1-4-5-6.5-9-5.5Z"/>
  <path class="st8" d="M225.4,267.1l-.9.5c-3.6,2.1-4.8,6.6-2.7,10.2,2.1,3.6,6.6,4.8,10.2,2.7l.9-.5c3.6-2.1,4.8-6.6,2.7-10.2-2.1-3.6-6.6-4.8-10.2-2.7Z"/>
  <path class="st3" d="M34.5,125.9c3.9,1.3,8.1-.9,9.4-4.8,4.5-14,11.4-26.9,20.3-38.2,6.9-8.8,14.9-16.7,23.9-23.4,3.1,2,6.7,3.2,10.7,3.2,10.6,0,19.2-8.6,19.2-19.2s-8.6-19.2-19.2-19.2-19.2,8.6-19.2,19.2.1,2.3.3,3.5c-10.3,7.6-19.6,16.6-27.5,26.7-9.9,12.7-17.7,27.1-22.7,42.8-1.3,3.9.9,8.1,4.8,9.4ZM98.8,35.1c4.7,0,8.5,3.8,8.5,8.5s-3.8,8.5-8.5,8.5-8.5-3.8-8.5-8.5,3.8-8.5,8.5-8.5Z"/>
  <path class="st6" d="M189.4,56.4c-4.3-1.1-8.7-2-13.3-2.6-4.6-.6-9.1-.9-13.5-.9-29.4,0-56,11.9-75.3,31.2-19.3,19.3-31.2,45.9-31.2,75.3s1.8,22.1,5.1,32.4c2.3,7.2,5.4,14.1,9.1,20.6-2,3-3.1,6.6-3.1,10.5,0,10.6,8.6,19.2,19.2,19.2s19.2-8.6,19.2-19.2-8.6-19.2-19.2-19.2-2.4.1-3.6.3c-3-5.3-5.4-10.9-7.3-16.8-2.8-8.7-4.3-18.1-4.3-27.9,0-25.3,10.2-48.2,26.8-64.7,16.6-16.6,39.4-26.8,64.7-26.8s8,.2,11.7.7c3.9.5,7.7,1.2,11.4,2.2,4,1,8.1-1.4,9.1-5.4,1-4-1.4-8.1-5.4-9.1ZM86.2,214.6c4.7,0,8.5,3.8,8.5,8.5s-3.8,8.5-8.5,8.5-8.5-3.8-8.5-8.5,3.8-8.5,8.5-8.5Z"/>
  <path class="st2" d="M302.1,159.5c0-38.5-15.6-73.5-40.9-98.7-25.3-25.3-60.2-40.9-98.7-40.9s-7.5,3.4-7.5,7.5,3.4,7.5,7.5,7.5c34.4,0,65.6,13.9,88.1,36.5,22.5,22.6,36.5,53.7,36.5,88.1s-1.8,24.6-5.3,36c-2.6,8.5-6,16.6-10.2,24.2-1-.2-2-.3-3.1-.3-10.6,0-19.2,8.6-19.2,19.2s8.6,19.2,19.2,19.2,19.2-8.6,19.2-19.2-1.3-7.8-3.4-10.9c4.9-8.8,8.9-18.1,11.9-28,3.8-12.8,5.9-26.3,5.9-40.2ZM268.6,247.1c-4.7,0-8.5-3.8-8.5-8.5s3.8-8.5,8.5-8.5,8.5,3.8,8.5,8.5-3.8,8.5-8.5,8.5Z"/>
  <path class="st9" d="M165.4,138.4c-9.7,0-17.6,7.9-17.6,17.6s7.9,17.6,17.6,17.6,11.8-3.3,14.9-8.3h31.5c-1.7,9.9-6.4,18.7-13.2,25.5-8.6,8.6-20.5,13.9-33.7,14-13.2,0-25-5.3-33.7-14-8.6-8.6-13.9-20.5-14-33.7,0-13.2,5.3-25,14-33.7,8.6-8.6,20.5-13.9,33.7-14,4.5,0,8.2-3.7,8.2-8.2s-3.7-8.2-8.2-8.2c-35.4,0-64,28.7-64,64,0,35.4,28.7,64,64,64,35.4,0,64-28.7,64-64,0-2.2-.9-4.3-2.4-5.8-1.5-1.5-3.6-2.4-5.8-2.4h-39.3c-2.7-6.1-8.9-10.4-16-10.4Z"/>
</svg>